<svg width="180" height="112" viewBox="0 0 180 112" fill="none" xmlns="http://www.w3.org/2000/svg">
<path d="M38.24 27V62.84H45.6V70.2H38.24V85.24H29.76V70.2H4.72L3.92 62.84L30.16 27H38.24ZM14 62.84H29.76V41.16L14 62.84Z" fill="#2E3438"/>
<path d="M38.24 27V62.84H45.6V70.2H38.24V85.24H29.76V70.2H4.72L3.92 62.84L30.16 27H38.24ZM14 62.84H29.76V41.16L14 62.84Z" fill="black" fill-opacity="0.2"/>
<path d="M38.24 27V62.84H45.6V70.2H38.24V85.24H29.76V70.2H4.72L3.92 62.84L30.16 27H38.24ZM14 62.84H29.76V41.16L14 62.84Z" fill="black" fill-opacity="0.2"/>
<path d="M38.24 27V62.84H45.6V70.2H38.24V85.24H29.76V70.2H4.72L3.92 62.84L30.16 27H38.24ZM14 62.84H29.76V41.16L14 62.84Z" fill="black" fill-opacity="0.2"/>
<path d="M38.24 27V62.84H45.6V70.2H38.24V85.24H29.76V70.2H4.72L3.92 62.84L30.16 27H38.24ZM14 62.84H29.76V41.16L14 62.84Z" fill="black" fill-opacity="0.2"/>
<path d="M38.24 27V62.84H45.6V70.2H38.24V85.24H29.76V70.2H4.72L3.92 62.84L30.16 27H38.24ZM14 62.84H29.76V41.16L14 62.84Z" fill="black" fill-opacity="0.2"/>
<path fill-rule="evenodd" clip-rule="evenodd" d="M54 65.9169L90 51.2002L126 65.9169V77.2835L90 92.0002L54 77.1638V65.9169ZM62.5371 71.7797V71.3011L90 60.8917L117.463 71.3011V71.7797L90 82.1891L62.5371 71.7797Z" fill="#2E3438"/>
<path fill-rule="evenodd" clip-rule="evenodd" d="M54 65.9169L90 51.2002L126 65.9169V77.2835L90 92.0002L54 77.1638V65.9169ZM62.5371 71.7797V71.3011L90 60.8917L117.463 71.3011V71.7797L90 82.1891L62.5371 71.7797Z" fill="black" fill-opacity="0.2"/>
<path fill-rule="evenodd" clip-rule="evenodd" d="M54 65.9169L90 51.2002L126 65.9169V77.2835L90 92.0002L54 77.1638V65.9169ZM62.5371 71.7797V71.3011L90 60.8917L117.463 71.3011V71.7797L90 82.1891L62.5371 71.7797Z" fill="black" fill-opacity="0.2"/>
<path fill-rule="evenodd" clip-rule="evenodd" d="M54 65.9169L90 51.2002L126 65.9169V77.2835L90 92.0002L54 77.1638V65.9169ZM62.5371 71.7797V71.3011L90 60.8917L117.463 71.3011V71.7797L90 82.1891L62.5371 71.7797Z" fill="black" fill-opacity="0.2"/>
<path fill-rule="evenodd" clip-rule="evenodd" d="M54 65.9169L90 51.2002L126 65.9169V77.2835L90 92.0002L54 77.1638V65.9169ZM62.5371 71.7797V71.3011L90 60.8917L117.463 71.3011V71.7797L90 82.1891L62.5371 71.7797Z" fill="black" fill-opacity="0.2"/>
<path fill-rule="evenodd" clip-rule="evenodd" d="M54 65.9169L90 51.2002L126 65.9169V77.2835L90 92.0002L54 77.1638V65.9169ZM62.5371 71.7797V71.3011L90 60.8917L117.463 71.3011V71.7797L90 82.1891L62.5371 71.7797Z" fill="black" fill-opacity="0.2"/>
<path fill-rule="evenodd" clip-rule="evenodd" d="M54 50.3163L90 35.5996L126 50.3163V61.6829L90 76.3996L54 61.5632V50.3163ZM62.5371 56.1791V55.7005L90 45.2911L117.463 55.7005V56.1791L90 66.5885L62.5371 56.1791Z" fill="#5F666D"/>
<path fill-rule="evenodd" clip-rule="evenodd" d="M54 34.7167L90 20L126 34.7167V46.0833L90 60.8L54 45.9636V34.7167ZM62.5371 40.5795V40.1009L90 29.6915L117.463 40.1009V40.5795L90 50.9889L62.5371 40.5795Z" fill="#9099A6"/>
<path d="M168.24 27V62.84H175.6V70.2H168.24V85.24H159.76V70.2H134.72L133.92 62.84L160.16 27H168.24ZM144 62.84H159.76V41.16L144 62.84Z" fill="#2E3438"/>
<path d="M168.24 27V62.84H175.6V70.2H168.24V85.24H159.76V70.2H134.72L133.92 62.84L160.16 27H168.24ZM144 62.84H159.76V41.16L144 62.84Z" fill="black" fill-opacity="0.2"/>
<path d="M168.24 27V62.84H175.6V70.2H168.24V85.24H159.76V70.2H134.72L133.92 62.84L160.16 27H168.24ZM144 62.84H159.76V41.16L144 62.84Z" fill="black" fill-opacity="0.2"/>
<path d="M168.24 27V62.84H175.6V70.2H168.24V85.24H159.76V70.2H134.72L133.92 62.84L160.16 27H168.24ZM144 62.84H159.76V41.16L144 62.84Z" fill="black" fill-opacity="0.2"/>
<path d="M168.24 27V62.84H175.6V70.2H168.24V85.24H159.76V70.2H134.72L133.92 62.84L160.16 27H168.24ZM144 62.84H159.76V41.16L144 62.84Z" fill="black" fill-opacity="0.2"/>
<path d="M168.24 27V62.84H175.6V70.2H168.24V85.24H159.76V70.2H134.72L133.92 62.84L160.16 27H168.24ZM144 62.84H159.76V41.16L144 62.84Z" fill="black" fill-opacity="0.2"/>
</svg>
