<svg width="116" height="34" viewBox="0 0 116 34" fill="none" xmlns="http://www.w3.org/2000/svg">
<path fill-rule="evenodd" clip-rule="evenodd" d="M0 21.4075L16 14.8667L32 21.4075V26.4593L16 33L0 26.4061V21.4075ZM3.79429 24.0131V23.8004L16 19.174L28.2057 23.8004V24.0131L16 28.6395L3.79429 24.0131Z" fill="url(#paint0_linear_577_5858)"/>
<path fill-rule="evenodd" clip-rule="evenodd" d="M0 14.4741L16 7.93335L32 14.4741V19.5259L16 26.0667L0 19.4727V14.4741ZM3.79429 17.0798V16.8671L16 12.2407L28.2057 16.8671V17.0798L16 21.7062L3.79429 17.0798Z" fill="url(#paint1_linear_577_5858)"/>
<path fill-rule="evenodd" clip-rule="evenodd" d="M0 7.54076L16 1L32 7.54076V12.5926L16 19.1333L0 12.5394V7.54076ZM3.79429 10.1464V9.93372L16 5.30733L28.2057 9.93372V10.1464L16 14.7728L3.79429 10.1464Z" fill="url(#paint2_linear_577_5858)"/>
<path d="M61.736 8.36L55.64 26.312H51.944L45.392 8.36H48.68L53.744 22.208L58.448 8.36H61.736ZM70.8691 23.792C74.4691 23.792 76.7971 21.248 76.7971 17.336C76.7971 13.4 74.4691 10.856 70.8691 10.856C67.2931 10.856 64.9651 13.4 64.9651 17.336C64.9651 21.248 67.2931 23.792 70.8691 23.792ZM61.8691 17.336C61.8691 11.96 65.5891 8.168 70.8691 8.168C76.1731 8.168 79.8931 11.96 79.8931 17.336C79.8931 22.712 76.1731 26.504 70.8691 26.504C65.5891 26.504 61.8691 22.712 61.8691 17.336ZM90.7192 8.36L97.2712 26.312H93.9832L92.2792 21.608H85.3432L83.5672 26.312H80.2792L86.9752 8.36H90.7192ZM86.3272 18.944H91.2952L88.8472 12.224L86.3272 18.944ZM113.824 8.36V26.312H110.728V18.416H102.88V26.312H99.7837V8.36H102.88V15.752H110.728V8.36H113.824Z" fill="black"/>
<defs>
<linearGradient id="paint0_linear_577_5858" x1="-4.97013e-08" y1="23.9153" x2="32" y2="23.9153" gradientUnits="userSpaceOnUse">
<stop stop-color="#9B2ECF"/>
<stop offset="1" stop-color="#E1115C"/>
</linearGradient>
<linearGradient id="paint1_linear_577_5858" x1="-2.38418e-07" y1="17" x2="32" y2="17" gradientUnits="userSpaceOnUse">
<stop stop-color="#C47FE4"/>
<stop offset="1" stop-color="#EC669A"/>
</linearGradient>
<linearGradient id="paint2_linear_577_5858" x1="2.18641e-07" y1="10.0847" x2="32" y2="10.0847" gradientUnits="userSpaceOnUse">
<stop stop-color="#E8C8F6"/>
<stop offset="1" stop-color="#FCBDDB"/>
</linearGradient>
</defs>
</svg>
